<svg width="199" height="200" viewBox="0 0 199 200" fill="none" xmlns="http://www.w3.org/2000/svg">
<ellipse cx="99.5" cy="100" rx="99.5" ry="100" fill="#2E2E2E"/>
<path d="M47.8447 182.029L9 141.101H11.5652L12.2981 138.474L19.6273 133.219H35.7516L44.1801 139.6V142.227H47.8447V46.8926L67.6335 41.638V39.386H70.5652V27H71.2981V39.386H73.8634V41.638L95.4845 45.7666V153.487L98.0497 154.238V133.97L99.1491 131.718H100.615V120.458L104.646 118.956L110.143 105.444L117.106 117.83H120.037L119.304 45.7666L140.925 40.512L166.578 45.7666V132.468H174.273L183.435 139.975V142.602H186L176.187 161.736L164.617 173.712L151.726 184.025L129.579 192.342L100.615 197L73.716 192.342L47.8447 182.029Z" fill="white" stroke="white"/>
<path d="M194.5 100C194.5 152.764 151.946 195.5 99.5 195.5C47.0542 195.5 4.5 152.764 4.5 100C4.5 47.2355 47.0542 4.5 99.5 4.5C151.946 4.5 194.5 47.2355 194.5 100Z" stroke="black" stroke-width="9"/>
<path d="M67.72 57V48.6H70.498C71.078 48.6 71.622 48.71 72.13 48.93C72.638 49.146 73.084 49.448 73.468 49.836C73.852 50.22 74.152 50.666 74.368 51.174C74.588 51.678 74.698 52.22 74.698 52.8C74.698 53.38 74.588 53.924 74.368 54.432C74.152 54.936 73.852 55.382 73.468 55.77C73.084 56.154 72.638 56.456 72.13 56.676C71.622 56.892 71.078 57 70.498 57H67.72ZM68.56 56.16H70.498C70.962 56.16 71.396 56.074 71.8 55.902C72.208 55.726 72.566 55.484 72.874 55.176C73.182 54.868 73.422 54.512 73.594 54.108C73.77 53.7 73.858 53.264 73.858 52.8C73.858 52.336 73.77 51.902 73.594 51.498C73.422 51.09 73.18 50.732 72.868 50.424C72.56 50.116 72.204 49.876 71.8 49.704C71.396 49.528 70.962 49.44 70.498 49.44H68.56V56.16ZM71.62 75.156C71.052 75.156 70.518 75.044 70.018 74.82C69.518 74.592 69.078 74.278 68.698 73.878C68.318 73.478 68.02 73.016 67.804 72.492C67.588 71.964 67.48 71.4 67.48 70.8C67.48 70.2 67.588 69.638 67.804 69.114C68.02 68.586 68.318 68.122 68.698 67.722C69.078 67.322 69.518 67.01 70.018 66.786C70.518 66.558 71.052 66.444 71.62 66.444C72.192 66.444 72.728 66.558 73.228 66.786C73.728 67.01 74.168 67.322 74.548 67.722C74.928 68.122 75.224 68.586 75.436 69.114C75.652 69.638 75.76 70.2 75.76 70.8C75.76 71.4 75.652 71.964 75.436 72.492C75.224 73.016 74.928 73.478 74.548 73.878C74.168 74.278 73.728 74.592 73.228 74.82C72.728 75.044 72.192 75.156 71.62 75.156ZM71.62 74.316C72.08 74.316 72.508 74.224 72.904 74.04C73.304 73.852 73.654 73.596 73.954 73.272C74.258 72.948 74.494 72.574 74.662 72.15C74.834 71.726 74.92 71.276 74.92 70.8C74.92 70.32 74.834 69.868 74.662 69.444C74.49 69.016 74.252 68.642 73.948 68.322C73.648 67.998 73.298 67.744 72.898 67.56C72.502 67.376 72.076 67.284 71.62 67.284C71.16 67.284 70.73 67.378 70.33 67.566C69.934 67.75 69.584 68.004 69.28 68.328C68.98 68.652 68.744 69.026 68.572 69.45C68.404 69.874 68.32 70.324 68.32 70.8C68.32 71.284 68.406 71.738 68.578 72.162C68.75 72.586 68.986 72.96 69.286 73.284C69.59 73.608 69.94 73.862 70.336 74.046C70.736 74.226 71.164 74.316 71.62 74.316ZM67.72 93V84.6H68.632L73.066 91.482V84.6H73.906V93H73L68.56 86.118V93H67.72ZM70.534 102.6H71.578L74.638 111H73.744L73.09 109.2H69.028L68.374 111H67.48L70.534 102.6ZM69.334 108.36H72.778L71.056 103.632L69.334 108.36ZM74.074 120.6V121.44H71.194V129H70.354V121.44H67.48V120.6H74.074ZM67.9 147V138.6H68.74V147H67.9ZM71.62 165.156C71.052 165.156 70.518 165.044 70.018 164.82C69.518 164.592 69.078 164.278 68.698 163.878C68.318 163.478 68.02 163.016 67.804 162.492C67.588 161.964 67.48 161.4 67.48 160.8C67.48 160.2 67.588 159.638 67.804 159.114C68.02 158.586 68.318 158.122 68.698 157.722C69.078 157.322 69.518 157.01 70.018 156.786C70.518 156.558 71.052 156.444 71.62 156.444C72.192 156.444 72.728 156.558 73.228 156.786C73.728 157.01 74.168 157.322 74.548 157.722C74.928 158.122 75.224 158.586 75.436 159.114C75.652 159.638 75.76 160.2 75.76 160.8C75.76 161.4 75.652 161.964 75.436 162.492C75.224 163.016 74.928 163.478 74.548 163.878C74.168 164.278 73.728 164.592 73.228 164.82C72.728 165.044 72.192 165.156 71.62 165.156ZM71.62 164.316C72.08 164.316 72.508 164.224 72.904 164.04C73.304 163.852 73.654 163.596 73.954 163.272C74.258 162.948 74.494 162.574 74.662 162.15C74.834 161.726 74.92 161.276 74.92 160.8C74.92 160.32 74.834 159.868 74.662 159.444C74.49 159.016 74.252 158.642 73.948 158.322C73.648 157.998 73.298 157.744 72.898 157.56C72.502 157.376 72.076 157.284 71.62 157.284C71.16 157.284 70.73 157.378 70.33 157.566C69.934 157.75 69.584 158.004 69.28 158.328C68.98 158.652 68.744 159.026 68.572 159.45C68.404 159.874 68.32 160.324 68.32 160.8C68.32 161.284 68.406 161.738 68.578 162.162C68.75 162.586 68.986 162.96 69.286 163.284C69.59 163.608 69.94 163.862 70.336 164.046C70.736 164.226 71.164 164.316 71.62 164.316ZM67.72 183V174.6H68.632L73.066 181.482V174.6H73.906V183H73L68.56 176.118V183H67.72Z" fill="black"/>
<path d="M67.72 57H66.72V58H67.72V57ZM67.72 48.6V47.6H66.72V48.6H67.72ZM72.13 48.93L71.7326 49.8477L71.7387 49.8503L72.13 48.93ZM73.468 49.836L72.7572 50.5394L72.7609 50.5431L73.468 49.836ZM74.368 51.174L73.4477 51.5653L73.4515 51.5741L74.368 51.174ZM74.368 54.432L73.4504 54.0346L73.4489 54.0381L74.368 54.432ZM73.468 55.77L74.1751 56.4771L74.1788 56.4734L73.468 55.77ZM72.13 56.676L72.5213 57.5963L72.5274 57.5936L72.13 56.676ZM68.56 56.16H67.56V57.16H68.56V56.16ZM71.8 55.902L72.1917 56.8221L72.1961 56.8202L71.8 55.902ZM72.874 55.176L72.1669 54.4689H72.1669L72.874 55.176ZM73.594 54.108L72.6758 53.7119L72.6739 53.7163L73.594 54.108ZM73.594 51.498L72.6725 51.8865L72.6772 51.8974L73.594 51.498ZM72.868 50.424L72.1609 51.1311L72.1655 51.1357L72.868 50.424ZM71.8 49.704L71.4006 50.6208L71.4083 50.6241L71.8 49.704ZM68.56 49.44V48.44H67.56V49.44H68.56ZM68.72 57V48.6H66.72V57H68.72ZM67.72 49.6H70.498V47.6H67.72V49.6ZM70.498 49.6C70.9479 49.6 71.356 49.6846 71.7326 49.8476L72.5274 48.0124C71.888 47.7354 71.2081 47.6 70.498 47.6V49.6ZM71.7387 49.8503C72.1285 50.016 72.4657 50.2448 72.7572 50.5394L74.1788 49.1326C73.7023 48.6512 73.1475 48.276 72.5213 48.0097L71.7387 49.8503ZM72.7609 50.5431C73.0527 50.835 73.281 51.1733 73.4477 51.5653L75.2883 50.7827C75.023 50.1587 74.6513 49.605 74.1751 49.1289L72.7609 50.5431ZM73.4515 51.5741C73.6134 51.945 73.698 52.35 73.698 52.8H75.698C75.698 52.09 75.5626 51.411 75.2845 50.7739L73.4515 51.5741ZM73.698 52.8C73.698 53.2499 73.6134 53.658 73.4504 54.0346L75.2856 54.8294C75.5626 54.19 75.698 53.5101 75.698 52.8H73.698ZM73.4489 54.0381C73.2821 54.4273 73.0526 54.7682 72.7572 55.0666L74.1788 56.4734C74.6514 55.9958 75.0219 55.4447 75.2871 54.8259L73.4489 54.0381ZM72.7609 55.0629C72.4677 55.3561 72.1273 55.5874 71.7326 55.7584L72.5274 57.5936C73.1487 57.3246 73.7003 56.9519 74.1751 56.4771L72.7609 55.0629ZM71.7387 55.7557C71.3607 55.9165 70.9505 56 70.498 56V58C71.2055 58 71.8833 57.8675 72.5213 57.5963L71.7387 55.7557ZM70.498 56H67.72V58H70.498V56ZM68.56 57.16H70.498V55.16H68.56V57.16ZM70.498 57.16C71.0889 57.16 71.6569 57.0498 72.1917 56.8221L71.4083 54.9819C71.1351 55.0982 70.8351 55.16 70.498 55.16V57.16ZM72.1961 56.8202C72.7178 56.5952 73.1819 56.2823 73.5811 55.8831L72.1669 54.4689C71.9501 54.6857 71.6982 54.8568 71.4039 54.9838L72.1961 56.8202ZM73.5811 55.8831C73.9804 55.4838 74.2924 55.0205 74.5141 54.4997L72.6739 53.7163C72.5517 54.0035 72.3836 54.2522 72.1669 54.4689L73.5811 55.8831ZM74.5122 54.5041C74.7446 53.9655 74.858 53.3941 74.858 52.8H72.858C72.858 53.1339 72.7954 53.4345 72.6758 53.7119L74.5122 54.5041ZM74.858 52.8C74.858 52.206 74.7446 51.6352 74.5108 51.0986L72.6772 51.8974C72.7954 52.1688 72.858 52.466 72.858 52.8H74.858ZM74.5155 51.1095C74.2929 50.5817 73.977 50.1136 73.5705 49.7123L72.1655 51.1357C72.383 51.3504 72.5511 51.5983 72.6725 51.8865L74.5155 51.1095ZM73.5751 49.7169C73.1758 49.3176 72.7125 49.0056 72.1917 48.7839L71.4083 50.6241C71.6955 50.7463 71.9442 50.9144 72.1609 51.1311L73.5751 49.7169ZM72.1994 48.7872C71.6628 48.5534 71.092 48.44 70.498 48.44V50.44C70.832 50.44 71.1292 50.5026 71.4006 50.6208L72.1994 48.7872ZM70.498 48.44H68.56V50.44H70.498V48.44ZM67.56 49.44V56.16H69.56V49.44H67.56ZM70.018 74.82L69.6031 75.7299L69.6092 75.7326L70.018 74.82ZM68.698 73.878L69.423 73.1893H69.423L68.698 73.878ZM67.804 72.492L66.8784 72.8706L66.8795 72.8731L67.804 72.492ZM67.804 69.114L68.7285 69.4951L68.7295 69.4926L67.804 69.114ZM68.698 67.722L69.423 68.4107L68.698 67.722ZM70.018 66.786L70.4269 67.6986L70.4329 67.6959L70.018 66.786ZM73.228 66.786L72.8131 67.6959L72.8192 67.6986L73.228 66.786ZM74.548 67.722L73.823 68.4107H73.823L74.548 67.722ZM75.436 69.114L74.508 69.4866L74.5115 69.4951L75.436 69.114ZM75.436 72.492L74.5104 72.1134L74.509 72.117L75.436 72.492ZM74.548 73.878L73.823 73.1893H73.823L74.548 73.878ZM73.228 74.82L73.6369 75.7326L73.6429 75.7299L73.228 74.82ZM72.904 74.04L73.3254 74.9469L73.3294 74.945L72.904 74.04ZM73.954 73.272L73.2247 72.5877L73.2202 72.5926L73.954 73.272ZM74.662 72.15L73.7353 71.7741L73.7323 71.7816L74.662 72.15ZM74.662 69.444L73.7341 69.8169L73.7353 69.8199L74.662 69.444ZM73.948 68.322L73.2142 69.0015L73.223 69.0107L73.948 68.322ZM72.898 67.56L72.4766 68.4669L72.4801 68.4685L72.898 67.56ZM70.33 67.566L70.7514 68.4729L70.7554 68.471L70.33 67.566ZM69.28 68.328L68.5507 67.6437L68.5462 67.6486L69.28 68.328ZM68.572 69.45L67.6453 69.0741L67.6423 69.0816L68.572 69.45ZM68.578 72.162L67.6513 72.5379H67.6513L68.578 72.162ZM69.286 73.284L68.5522 73.9634L68.5567 73.9682L69.286 73.284ZM70.336 74.046L69.9146 74.953L69.9256 74.9579L70.336 74.046ZM71.62 74.156C71.1876 74.156 70.7935 74.0717 70.4268 73.9074L69.6092 75.7326C70.2425 76.0163 70.9164 76.156 71.62 76.156V74.156ZM70.4329 73.9101C70.05 73.7355 69.7151 73.4967 69.423 73.1893L67.973 74.5667C68.4409 75.0593 68.986 75.4485 69.6031 75.7299L70.4329 73.9101ZM69.423 73.1893C69.1302 72.8811 68.8989 72.5241 68.7285 72.1109L66.8795 72.8731C67.1411 73.5079 67.5058 74.0749 67.973 74.5667L69.423 73.1893ZM68.7295 72.1134C68.5652 71.7117 68.48 71.277 68.48 70.8H66.48C66.48 71.523 66.6108 72.2163 66.8785 72.8706L68.7295 72.1134ZM68.48 70.8C68.48 70.323 68.5652 69.8912 68.7285 69.4951L66.8795 68.7329C66.6108 69.3848 66.48 70.077 66.48 70.8H68.48ZM68.7295 69.4926C68.9002 69.0756 69.1314 68.7177 69.423 68.4107L67.973 67.0333C67.5046 67.5263 67.1398 68.0964 66.8785 68.7354L68.7295 69.4926ZM69.423 68.4107C69.7139 68.1046 70.0467 67.8689 70.4268 67.6986L69.6092 65.8734C68.9893 66.1511 68.4421 66.5394 67.973 67.0333L69.423 68.4107ZM70.4329 67.6959C70.7982 67.5293 71.1902 67.444 71.62 67.444V65.444C70.9138 65.444 70.2378 65.5867 69.6031 65.8761L70.4329 67.6959ZM71.62 67.444C72.0548 67.444 72.4487 67.5297 72.8131 67.6959L73.6429 65.8761C73.0073 65.5863 72.3292 65.444 71.62 65.444V67.444ZM72.8192 67.6986C73.1993 67.8689 73.5321 68.1046 73.823 68.4107L75.273 67.0333C74.8039 66.5394 74.2567 66.1511 73.6368 65.8734L72.8192 67.6986ZM73.823 68.4107C74.1132 68.7163 74.3416 69.0721 74.508 69.4866L76.364 68.7414C76.1064 68.0999 75.7428 67.5277 75.273 67.0333L73.823 68.4107ZM74.5115 69.4951C74.6748 69.8912 74.76 70.323 74.76 70.8H76.76C76.76 70.077 76.6292 69.3848 76.3605 68.7329L74.5115 69.4951ZM74.76 70.8C74.76 71.277 74.6748 71.7117 74.5105 72.1134L76.3615 72.8706C76.6292 72.2163 76.76 71.523 76.76 70.8H74.76ZM74.509 72.117C74.3429 72.5275 74.1144 72.8825 73.823 73.1893L75.273 74.5667C75.7416 74.0735 76.1051 73.5044 76.363 72.867L74.509 72.117ZM73.823 73.1893C73.5309 73.4967 73.196 73.7355 72.8131 73.9101L73.6429 75.7299C74.26 75.4485 74.8051 75.0593 75.273 74.5667L73.823 73.1893ZM72.8192 73.9074C72.4534 74.0712 72.0574 74.156 71.62 74.156V76.156C72.3266 76.156 73.0026 76.0168 73.6368 75.7326L72.8192 73.9074ZM71.62 75.316C72.2176 75.316 72.7903 75.1955 73.3254 74.9469L72.4826 73.1331C72.2257 73.2525 71.9424 73.316 71.62 73.316V75.316ZM73.3294 74.945C73.8456 74.7024 74.3003 74.3698 74.6878 73.9514L73.2202 72.5926C73.0077 72.8222 72.7624 73.0016 72.4786 73.135L73.3294 74.945ZM74.6833 73.9562C75.0756 73.538 75.3786 73.0562 75.5917 72.5184L73.7323 71.7816C73.6094 72.0918 73.4404 72.358 73.2247 72.5878L74.6833 73.9562ZM75.5887 72.5259C75.811 71.9777 75.92 71.3996 75.92 70.8H73.92C73.92 71.1524 73.857 71.4743 73.7353 71.7741L75.5887 72.5259ZM75.92 70.8C75.92 70.1976 75.8115 69.6173 75.5887 69.0681L73.7353 69.8199C73.8565 70.1187 73.92 70.4424 73.92 70.8H75.92ZM75.5899 69.0711C75.373 68.5313 75.0679 68.0489 74.673 67.6333L73.223 69.0107C73.4361 69.2351 73.607 69.5007 73.7341 69.8169L75.5899 69.0711ZM74.6818 67.6426C74.2928 67.2225 73.8356 66.8906 73.3159 66.6515L72.4801 68.4685C72.7604 68.5974 73.0032 68.7735 73.2142 69.0014L74.6818 67.6426ZM73.3194 66.6531C72.7855 66.4051 72.215 66.284 71.62 66.284V68.284C71.937 68.284 72.2185 68.3469 72.4766 68.4669L73.3194 66.6531ZM71.62 66.284C71.0191 66.284 70.4432 66.4079 69.9046 66.661L70.7554 68.471C71.0168 68.3481 71.3009 68.284 71.62 68.284V66.284ZM69.9086 66.6591C69.3947 66.8979 68.9406 67.2282 68.5507 67.6438L70.0093 69.0122C70.2274 68.7798 70.4733 68.6021 70.7514 68.4729L69.9086 66.6591ZM68.5462 67.6486C68.1612 68.0645 67.8611 68.5422 67.6453 69.0741L69.4987 69.8259C69.6269 69.5098 69.7988 69.2395 70.0138 69.0074L68.5462 67.6486ZM67.6423 69.0816C67.4258 69.628 67.32 70.2035 67.32 70.8H69.32C69.32 70.4445 69.3822 70.12 69.5017 69.8184L67.6423 69.0816ZM67.32 70.8C67.32 71.4053 67.4281 71.9877 67.6513 72.5379L69.5047 71.7861C69.3839 71.4883 69.32 71.1627 69.32 70.8H67.32ZM67.6513 72.5379C67.8671 73.0698 68.1672 73.5475 68.5522 73.9634L70.0198 72.6046C69.8048 72.3725 69.6329 72.1022 69.5047 71.7861L67.6513 72.5379ZM68.5567 73.9682C68.9466 74.3838 69.4007 74.7141 69.9146 74.9529L70.7574 73.1391C70.4793 73.0099 70.2334 72.8322 70.0153 72.5998L68.5567 73.9682ZM69.9256 74.9579C70.4598 75.1983 71.0283 75.316 71.62 75.316V73.316C71.2997 73.316 71.0122 73.2537 70.7464 73.1341L69.9256 74.9579ZM67.72 93H66.72V94H67.72V93ZM67.72 84.6V83.6H66.72V84.6H67.72ZM68.632 84.6L69.4726 84.0584L69.1773 83.6H68.632V84.6ZM73.066 91.482L72.2254 92.0236L74.066 94.8804V91.482H73.066ZM73.066 84.6V83.6H72.066V84.6H73.066ZM73.906 84.6H74.906V83.6H73.906V84.6ZM73.906 93V94H74.906V93H73.906ZM73 93L72.1597 93.5421L72.4551 94H73V93ZM68.56 86.118L69.4003 85.5759L67.56 82.7234V86.118H68.56ZM68.56 93V94H69.56V93H68.56ZM68.72 93V84.6H66.72V93H68.72ZM67.72 85.6H68.632V83.6H67.72V85.6ZM67.7914 85.1416L72.2254 92.0236L73.9066 90.9404L69.4726 84.0584L67.7914 85.1416ZM74.066 91.482V84.6H72.066V91.482H74.066ZM73.066 85.6H73.906V83.6H73.066V85.6ZM72.906 84.6V93H74.906V84.6H72.906ZM73.906 92H73V94H73.906V92ZM73.8403 92.4579L69.4003 85.5759L67.7197 86.6601L72.1597 93.5421L73.8403 92.4579ZM67.56 86.118V93H69.56V86.118H67.56ZM68.56 92H67.72V94H68.56V92ZM70.534 102.6V101.6H69.8335L69.5942 102.258L70.534 102.6ZM71.578 102.6L72.5176 102.258L72.278 101.6H71.578V102.6ZM74.638 111V112H76.0666L75.5776 110.658L74.638 111ZM73.744 111L72.8041 111.341L73.0434 112H73.744V111ZM73.09 109.2L74.0299 108.859L73.7906 108.2H73.09V109.2ZM69.028 109.2V108.2H68.3274L68.0881 108.859L69.028 109.2ZM68.374 111V112H69.0746L69.3139 111.341L68.374 111ZM67.48 111L66.5402 110.658L66.0524 112H67.48V111ZM69.334 108.36L68.3944 108.018L67.9055 109.36H69.334V108.36ZM72.778 108.36V109.36H74.2065L73.7176 108.018L72.778 108.36ZM71.056 103.632L71.9956 103.29L71.056 100.71L70.1164 103.29L71.056 103.632ZM70.534 103.6H71.578V101.6H70.534V103.6ZM70.6384 102.942L73.6984 111.342L75.5776 110.658L72.5176 102.258L70.6384 102.942ZM74.638 110H73.744V112H74.638V110ZM74.6839 110.659L74.0299 108.859L72.1501 109.541L72.8041 111.341L74.6839 110.659ZM73.09 108.2H69.028V110.2H73.09V108.2ZM68.0881 108.859L67.4341 110.659L69.3139 111.341L69.9679 109.541L68.0881 108.859ZM68.374 110H67.48V112H68.374V110ZM68.4198 111.342L71.4738 102.942L69.5942 102.258L66.5402 110.658L68.4198 111.342ZM69.334 109.36H72.778V107.36H69.334V109.36ZM73.7176 108.018L71.9956 103.29L70.1164 103.974L71.8384 108.702L73.7176 108.018ZM70.1164 103.29L68.3944 108.018L70.2736 108.702L71.9956 103.974L70.1164 103.29ZM74.074 120.6H75.074V119.6H74.074V120.6ZM74.074 121.44V122.44H75.074V121.44H74.074ZM71.194 121.44V120.44H70.194V121.44H71.194ZM71.194 129V130H72.194V129H71.194ZM70.354 129H69.354V130H70.354V129ZM70.354 121.44H71.354V120.44H70.354V121.44ZM67.48 121.44H66.48V122.44H67.48V121.44ZM67.48 120.6V119.6H66.48V120.6H67.48ZM73.074 120.6V121.44H75.074V120.6H73.074ZM74.074 120.44H71.194V122.44H74.074V120.44ZM70.194 121.44V129H72.194V121.44H70.194ZM71.194 128H70.354V130H71.194V128ZM71.354 129V121.44H69.354V129H71.354ZM70.354 120.44H67.48V122.44H70.354V120.44ZM68.48 121.44V120.6H66.48V121.44H68.48ZM67.48 121.6H74.074V119.6H67.48V121.6ZM67.9 147H66.9V148H67.9V147ZM67.9 138.6V137.6H66.9V138.6H67.9ZM68.74 138.6H69.74V137.6H68.74V138.6ZM68.74 147V148H69.74V147H68.74ZM68.9 147V138.6H66.9V147H68.9ZM67.9 139.6H68.74V137.6H67.9V139.6ZM67.74 138.6V147H69.74V138.6H67.74ZM68.74 146H67.9V148H68.74V146ZM70.018 164.82L69.6031 165.73L69.6092 165.733L70.018 164.82ZM68.698 163.878L69.423 163.189H69.423L68.698 163.878ZM67.804 162.492L66.8784 162.871L66.8795 162.873L67.804 162.492ZM67.804 159.114L68.7285 159.495L68.7295 159.493L67.804 159.114ZM68.698 157.722L69.423 158.411L68.698 157.722ZM70.018 156.786L70.4269 157.699L70.4329 157.696L70.018 156.786ZM73.228 156.786L72.8131 157.696L72.8192 157.699L73.228 156.786ZM74.548 157.722L73.823 158.411H73.823L74.548 157.722ZM75.436 159.114L74.508 159.487L74.5115 159.495L75.436 159.114ZM75.436 162.492L74.5104 162.113L74.509 162.117L75.436 162.492ZM74.548 163.878L73.823 163.189H73.823L74.548 163.878ZM73.228 164.82L73.6369 165.733L73.6429 165.73L73.228 164.82ZM72.904 164.04L73.3254 164.947L73.3294 164.945L72.904 164.04ZM73.954 163.272L73.2247 162.588L73.2202 162.593L73.954 163.272ZM74.662 162.15L73.7353 161.774L73.7323 161.782L74.662 162.15ZM74.662 159.444L73.7341 159.817L73.7353 159.82L74.662 159.444ZM73.948 158.322L73.2142 159.001L73.223 159.011L73.948 158.322ZM72.898 157.56L72.4766 158.467L72.4801 158.468L72.898 157.56ZM70.33 157.566L70.7514 158.473L70.7554 158.471L70.33 157.566ZM69.28 158.328L68.5507 157.644L68.5462 157.649L69.28 158.328ZM68.572 159.45L67.6453 159.074L67.6423 159.082L68.572 159.45ZM68.578 162.162L67.6513 162.538H67.6513L68.578 162.162ZM69.286 163.284L68.5522 163.963L68.5567 163.968L69.286 163.284ZM70.336 164.046L69.9146 164.953L69.9256 164.958L70.336 164.046ZM71.62 164.156C71.1876 164.156 70.7935 164.072 70.4268 163.907L69.6092 165.733C70.2425 166.016 70.9164 166.156 71.62 166.156V164.156ZM70.4329 163.91C70.05 163.736 69.7151 163.497 69.423 163.189L67.973 164.567C68.4409 165.059 68.986 165.448 69.6031 165.73L70.4329 163.91ZM69.423 163.189C69.1302 162.881 68.8989 162.524 68.7285 162.111L66.8795 162.873C67.1411 163.508 67.5058 164.075 67.973 164.567L69.423 163.189ZM68.7295 162.113C68.5652 161.712 68.48 161.277 68.48 160.8H66.48C66.48 161.523 66.6108 162.216 66.8785 162.871L68.7295 162.113ZM68.48 160.8C68.48 160.323 68.5652 159.891 68.7285 159.495L66.8795 158.733C66.6108 159.385 66.48 160.077 66.48 160.8H68.48ZM68.7295 159.493C68.9002 159.076 69.1314 158.718 69.423 158.411L67.973 157.033C67.5046 157.526 67.1398 158.096 66.8785 158.735L68.7295 159.493ZM69.423 158.411C69.7139 158.105 70.0467 157.869 70.4268 157.699L69.6092 155.873C68.9893 156.151 68.4421 156.539 67.973 157.033L69.423 158.411ZM70.4329 157.696C70.7982 157.529 71.1902 157.444 71.62 157.444V155.444C70.9138 155.444 70.2378 155.587 69.6031 155.876L70.4329 157.696ZM71.62 157.444C72.0548 157.444 72.4487 157.53 72.8131 157.696L73.6429 155.876C73.0073 155.586 72.3292 155.444 71.62 155.444V157.444ZM72.8192 157.699C73.1993 157.869 73.5321 158.105 73.823 158.411L75.273 157.033C74.8039 156.539 74.2567 156.151 73.6368 155.873L72.8192 157.699ZM73.823 158.411C74.1132 158.716 74.3416 159.072 74.508 159.487L76.364 158.741C76.1064 158.1 75.7428 157.528 75.273 157.033L73.823 158.411ZM74.5115 159.495C74.6748 159.891 74.76 160.323 74.76 160.8H76.76C76.76 160.077 76.6292 159.385 76.3605 158.733L74.5115 159.495ZM74.76 160.8C74.76 161.277 74.6748 161.712 74.5105 162.113L76.3615 162.871C76.6292 162.216 76.76 161.523 76.76 160.8H74.76ZM74.509 162.117C74.3429 162.528 74.1144 162.882 73.823 163.189L75.273 164.567C75.7416 164.074 76.1051 163.504 76.363 162.867L74.509 162.117ZM73.823 163.189C73.5309 163.497 73.196 163.736 72.8131 163.91L73.6429 165.73C74.26 165.448 74.8051 165.059 75.273 164.567L73.823 163.189ZM72.8192 163.907C72.4534 164.071 72.0574 164.156 71.62 164.156V166.156C72.3266 166.156 73.0026 166.017 73.6368 165.733L72.8192 163.907ZM71.62 165.316C72.2176 165.316 72.7903 165.195 73.3254 164.947L72.4826 163.133C72.2257 163.253 71.9424 163.316 71.62 163.316V165.316ZM73.3294 164.945C73.8456 164.702 74.3003 164.37 74.6878 163.951L73.2202 162.593C73.0077 162.822 72.7624 163.002 72.4786 163.135L73.3294 164.945ZM74.6833 163.956C75.0756 163.538 75.3786 163.056 75.5917 162.518L73.7323 161.782C73.6094 162.092 73.4404 162.358 73.2247 162.588L74.6833 163.956ZM75.5887 162.526C75.811 161.978 75.92 161.4 75.92 160.8H73.92C73.92 161.152 73.857 161.474 73.7353 161.774L75.5887 162.526ZM75.92 160.8C75.92 160.198 75.8115 159.617 75.5887 159.068L73.7353 159.82C73.8565 160.119 73.92 160.442 73.92 160.8H75.92ZM75.5899 159.071C75.373 158.531 75.0679 158.049 74.673 157.633L73.223 159.011C73.4361 159.235 73.607 159.501 73.7341 159.817L75.5899 159.071ZM74.6818 157.643C74.2928 157.223 73.8356 156.891 73.3159 156.652L72.4801 158.468C72.7604 158.597 73.0032 158.773 73.2142 159.001L74.6818 157.643ZM73.3194 156.653C72.7855 156.405 72.215 156.284 71.62 156.284V158.284C71.937 158.284 72.2185 158.347 72.4766 158.467L73.3194 156.653ZM71.62 156.284C71.0191 156.284 70.4432 156.408 69.9046 156.661L70.7554 158.471C71.0168 158.348 71.3009 158.284 71.62 158.284V156.284ZM69.9086 156.659C69.3947 156.898 68.9406 157.228 68.5507 157.644L70.0093 159.012C70.2274 158.78 70.4733 158.602 70.7514 158.473L69.9086 156.659ZM68.5462 157.649C68.1612 158.064 67.8611 158.542 67.6453 159.074L69.4987 159.826C69.6269 159.51 69.7988 159.24 70.0138 159.007L68.5462 157.649ZM67.6423 159.082C67.4258 159.628 67.32 160.203 67.32 160.8H69.32C69.32 160.445 69.3822 160.12 69.5017 159.818L67.6423 159.082ZM67.32 160.8C67.32 161.405 67.4281 161.988 67.6513 162.538L69.5047 161.786C69.3839 161.488 69.32 161.163 69.32 160.8H67.32ZM67.6513 162.538C67.8671 163.07 68.1672 163.548 68.5522 163.963L70.0198 162.605C69.8048 162.372 69.6329 162.102 69.5047 161.786L67.6513 162.538ZM68.5567 163.968C68.9466 164.384 69.4007 164.714 69.9146 164.953L70.7574 163.139C70.4793 163.01 70.2334 162.832 70.0153 162.6L68.5567 163.968ZM69.9256 164.958C70.4598 165.198 71.0283 165.316 71.62 165.316V163.316C71.2997 163.316 71.0122 163.254 70.7464 163.134L69.9256 164.958ZM67.72 183H66.72V184H67.72V183ZM67.72 174.6V173.6H66.72V174.6H67.72ZM68.632 174.6L69.4726 174.058L69.1773 173.6H68.632V174.6ZM73.066 181.482L72.2254 182.024L74.066 184.88V181.482H73.066ZM73.066 174.6V173.6H72.066V174.6H73.066ZM73.906 174.6H74.906V173.6H73.906V174.6ZM73.906 183V184H74.906V183H73.906ZM73 183L72.1597 183.542L72.4551 184H73V183ZM68.56 176.118L69.4003 175.576L67.56 172.723V176.118H68.56ZM68.56 183V184H69.56V183H68.56ZM68.72 183V174.6H66.72V183H68.72ZM67.72 175.6H68.632V173.6H67.72V175.6ZM67.7914 175.142L72.2254 182.024L73.9066 180.94L69.4726 174.058L67.7914 175.142ZM74.066 181.482V174.6H72.066V181.482H74.066ZM73.066 175.6H73.906V173.6H73.066V175.6ZM72.906 174.6V183H74.906V174.6H72.906ZM73.906 182H73V184H73.906V182ZM73.8403 182.458L69.4003 175.576L67.7197 176.66L72.1597 183.542L73.8403 182.458ZM67.56 176.118V183H69.56V176.118H67.56ZM68.56 182H67.72V184H68.56V182Z" fill="black"/>
<path d="M140.72 86L142.346 77.6H142.958L145.31 83.78L147.65 77.6H148.262L149.894 86H149.036L147.794 79.574L145.574 85.448H145.034L142.814 79.574L141.572 86H140.72ZM143.534 96.6H144.578L147.638 105H146.744L146.09 103.2H142.028L141.374 105H140.48L143.534 96.6ZM142.334 102.36H145.778L144.056 97.632L142.334 102.36ZM140.72 124V115.6H143.408C143.856 115.6 144.26 115.71 144.62 115.93C144.98 116.146 145.266 116.44 145.478 116.812C145.694 117.18 145.802 117.594 145.802 118.054C145.802 118.518 145.692 118.936 145.472 119.308C145.256 119.68 144.966 119.974 144.602 120.19C144.242 120.406 143.844 120.514 143.408 120.514H141.56V124H140.72ZM141.56 119.674H143.342C143.638 119.674 143.908 119.602 144.152 119.458C144.4 119.31 144.596 119.112 144.74 118.864C144.888 118.612 144.962 118.328 144.962 118.012C144.962 117.696 144.888 117.414 144.74 117.166C144.596 116.914 144.4 116.716 144.152 116.572C143.908 116.424 143.638 116.35 143.342 116.35H141.56V119.674Z" fill="black"/>
<path d="M140.72 86L139.738 85.81L139.508 87H140.72V86ZM142.346 77.6V76.6H141.521L141.364 77.41L142.346 77.6ZM142.958 77.6L143.893 77.2443L143.647 76.6H142.958V77.6ZM145.31 83.78L144.375 84.1357L145.312 86.5977L146.245 84.1341L145.31 83.78ZM147.65 77.6V76.6H146.959L146.715 77.2459L147.65 77.6ZM148.262 77.6L149.244 77.4093L149.086 76.6H148.262V77.6ZM149.894 86V87H151.107L150.876 85.8093L149.894 86ZM149.036 86L148.054 86.1898L148.211 87H149.036V86ZM147.794 79.574L148.776 79.3842L148.106 75.9194L146.859 79.2205L147.794 79.574ZM145.574 85.448V86.448H146.265L146.509 85.8015L145.574 85.448ZM145.034 85.448L144.099 85.8015L144.343 86.448H145.034V85.448ZM142.814 79.574L143.749 79.2205L142.502 75.9194L141.832 79.3842L142.814 79.574ZM141.572 86V87H142.397L142.554 86.1898L141.572 86ZM141.702 86.19L143.328 77.79L141.364 77.41L139.738 85.81L141.702 86.19ZM142.346 78.6H142.958V76.6H142.346V78.6ZM142.023 77.9557L144.375 84.1357L146.245 83.4243L143.893 77.2443L142.023 77.9557ZM146.245 84.1341L148.585 77.9541L146.715 77.2459L144.375 83.4259L146.245 84.1341ZM147.65 78.6H148.262V76.6H147.65V78.6ZM147.28 77.7907L148.912 86.1907L150.876 85.8093L149.244 77.4093L147.28 77.7907ZM149.894 85H149.036V87H149.894V85ZM150.018 85.8102L148.776 79.3842L146.812 79.7638L148.054 86.1898L150.018 85.8102ZM146.859 79.2205L144.639 85.0945L146.509 85.8015L148.729 79.9275L146.859 79.2205ZM145.574 84.448H145.034V86.448H145.574V84.448ZM145.969 85.0945L143.749 79.2205L141.879 79.9275L144.099 85.8015L145.969 85.0945ZM141.832 79.3842L140.59 85.8102L142.554 86.1898L143.796 79.7638L141.832 79.3842ZM141.572 85H140.72V87H141.572V85ZM143.534 96.6V95.6H142.834L142.594 96.2583L143.534 96.6ZM144.578 96.6L145.518 96.2577L145.278 95.6H144.578V96.6ZM147.638 105V106H149.067L148.578 104.658L147.638 105ZM146.744 105L145.804 105.341L146.043 106H146.744V105ZM146.09 103.2L147.03 102.859L146.791 102.2H146.09V103.2ZM142.028 103.2V102.2H141.327L141.088 102.859L142.028 103.2ZM141.374 105V106H142.075L142.314 105.341L141.374 105ZM140.48 105L139.54 104.658L139.052 106H140.48V105ZM142.334 102.36L141.394 102.018L140.906 103.36H142.334V102.36ZM145.778 102.36V103.36H147.206L146.718 102.018L145.778 102.36ZM144.056 97.632L144.996 97.2898L144.056 94.7099L143.116 97.2898L144.056 97.632ZM143.534 97.6H144.578V95.6H143.534V97.6ZM143.638 96.9423L146.698 105.342L148.578 104.658L145.518 96.2577L143.638 96.9423ZM147.638 104H146.744V106H147.638V104ZM147.684 104.659L147.03 102.859L145.15 103.541L145.804 105.341L147.684 104.659ZM146.09 102.2H142.028V104.2H146.09V102.2ZM141.088 102.859L140.434 104.659L142.314 105.341L142.968 103.541L141.088 102.859ZM141.374 104H140.48V106H141.374V104ZM141.42 105.342L144.474 96.9417L142.594 96.2583L139.54 104.658L141.42 105.342ZM142.334 103.36H145.778V101.36H142.334V103.36ZM146.718 102.018L144.996 97.2898L143.116 97.9742L144.838 102.702L146.718 102.018ZM143.116 97.2898L141.394 102.018L143.274 102.702L144.996 97.9742L143.116 97.2898ZM140.72 124H139.72V125H140.72V124ZM140.72 115.6V114.6H139.72V115.6H140.72ZM144.62 115.93L144.099 116.783L144.106 116.787L144.62 115.93ZM145.478 116.812L144.609 117.307L144.616 117.318L145.478 116.812ZM145.472 119.308L144.611 118.799L144.607 118.806L145.472 119.308ZM144.602 120.19L144.092 119.33L144.088 119.333L144.602 120.19ZM141.56 120.514V119.514H140.56V120.514H141.56ZM141.56 124V125H142.56V124H141.56ZM141.56 119.674H140.56V120.674H141.56V119.674ZM144.152 119.458L144.66 120.319L144.664 120.317L144.152 119.458ZM144.74 118.864L143.878 118.358L143.875 118.362L144.74 118.864ZM144.74 117.166L143.872 117.662L143.876 117.67L143.881 117.678L144.74 117.166ZM144.152 116.572L143.633 117.427L143.642 117.432L143.65 117.437L144.152 116.572ZM141.56 116.35V115.35H140.56V116.35H141.56ZM141.72 124V115.6H139.72V124H141.72ZM140.72 116.6H143.408V114.6H140.72V116.6ZM143.408 116.6C143.684 116.6 143.905 116.665 144.099 116.783L145.141 115.077C144.615 114.755 144.028 114.6 143.408 114.6V116.6ZM144.106 116.787C144.315 116.913 144.48 117.081 144.609 117.307L146.347 116.317C146.052 115.799 145.645 115.379 145.134 115.073L144.106 116.787ZM144.616 117.318C144.734 117.521 144.802 117.758 144.802 118.054H146.802C146.802 117.43 146.654 116.839 146.34 116.306L144.616 117.318ZM144.802 118.054C144.802 118.353 144.733 118.592 144.611 118.799L146.333 119.817C146.651 119.28 146.802 118.683 146.802 118.054H144.802ZM144.607 118.806C144.475 119.033 144.306 119.203 144.092 119.33L145.112 121.05C145.626 120.745 146.037 120.327 146.337 119.81L144.607 118.806ZM144.088 119.333C143.889 119.452 143.67 119.514 143.408 119.514V121.514C144.018 121.514 144.595 121.36 145.116 121.047L144.088 119.333ZM143.408 119.514H141.56V121.514H143.408V119.514ZM140.56 120.514V124H142.56V120.514H140.56ZM141.56 123H140.72V125H141.56V123ZM141.56 120.674H143.342V118.674H141.56V120.674ZM143.342 120.674C143.808 120.674 144.255 120.558 144.66 120.319L143.644 118.597C143.561 118.646 143.468 118.674 143.342 118.674V120.674ZM144.664 120.317C145.057 120.082 145.375 119.762 145.605 119.366L143.875 118.362C143.817 118.462 143.743 118.538 143.64 118.599L144.664 120.317ZM145.602 119.37C145.848 118.952 145.962 118.491 145.962 118.012H143.962C143.962 118.165 143.928 118.272 143.878 118.358L145.602 119.37ZM145.962 118.012C145.962 117.533 145.848 117.071 145.599 116.654L143.881 117.678C143.928 117.757 143.962 117.859 143.962 118.012H145.962ZM145.608 116.67C145.378 116.267 145.056 115.941 144.654 115.707L143.65 117.437C143.744 117.491 143.814 117.561 143.872 117.662L145.608 116.67ZM144.671 115.717C144.264 115.471 143.814 115.35 143.342 115.35V117.35C143.462 117.35 143.552 117.377 143.633 117.427L144.671 115.717ZM143.342 115.35H141.56V117.35H143.342V115.35ZM140.56 116.35V119.674H142.56V116.35H140.56Z" fill="black"/>
</svg>
